<svg xmlns="http://www.w3.org/2000/svg" xmlns:xlink="http://www.w3.org/1999/xlink" width="402" zoomAndPan="magnify" viewBox="0 0 301.5 301.500005" height="402" preserveAspectRatio="xMidYMid meet" version="1.0"><defs><g/><clipPath id="9bf93e3d23"><path d="M 75.234375 75.453125 L 226.265625 75.453125 L 226.265625 226.484375 L 75.234375 226.484375 Z M 75.234375 75.453125 " clip-rule="nonzero"/></clipPath><clipPath id="57eddc34c9"><path d="M 92.484375 75.453125 L 209.015625 75.453125 C 218.542969 75.453125 226.265625 83.175781 226.265625 92.703125 L 226.265625 209.234375 C 226.265625 218.761719 218.542969 226.484375 209.015625 226.484375 L 92.484375 226.484375 C 82.957031 226.484375 75.234375 218.761719 75.234375 209.234375 L 75.234375 92.703125 C 75.234375 83.175781 82.957031 75.453125 92.484375 75.453125 " clip-rule="nonzero"/></clipPath></defs><g clip-path="url(#9bf93e3d23)"><g clip-path="url(#57eddc34c9)"><path fill="#4218d9" d="M 75.234375 75.453125 L 226.265625 75.453125 L 226.265625 226.484375 L 75.234375 226.484375 Z M 75.234375 75.453125 " fill-opacity="1" fill-rule="nonzero"/></g></g><g fill="#ffffff" fill-opacity="1"><g transform="translate(111.842925, 153.981219)"><g><path d="M 13.140625 0 L 13.140625 -8.789062 L 21.0625 -22.132812 L 15 -22.132812 L 10.414062 -13.808594 L 5.832031 -22.132812 L -0.230469 -22.132812 L 7.6875 -8.789062 L 7.6875 0 Z M 13.140625 0 "/></g></g></g><g fill="#ffffff" fill-opacity="1"><g transform="translate(132.667783, 153.981219)"><g><path d="M 9.574219 0.347656 C 14.796875 0.347656 18.21875 -3.105469 18.21875 -8.324219 C 18.21875 -13.34375 14.738281 -16.796875 9.574219 -16.796875 C 4.410156 -16.796875 0.929688 -13.375 0.929688 -8.324219 C 0.929688 -3.074219 4.4375 0.347656 9.574219 0.347656 Z M 9.574219 -3.828125 C 7.398438 -3.828125 5.945312 -5.570312 5.945312 -8.324219 C 5.945312 -10.90625 7.398438 -12.648438 9.574219 -12.648438 C 11.777344 -12.648438 13.140625 -10.878906 13.140625 -8.324219 C 13.140625 -5.628906 11.777344 -3.828125 9.574219 -3.828125 Z M 9.574219 -3.828125 "/></g></g></g><g fill="#ffffff" fill-opacity="1"><g transform="translate(151.810405, 153.981219)"><g><path d="M 10.039062 0 L 12.472656 -9.890625 L 14.796875 0 L 19.40625 0 L 24.660156 -16.449219 L 19.496094 -16.449219 L 17 -6.933594 L 14.503906 -16.449219 L 10.328125 -16.449219 L 7.863281 -6.875 L 5.453125 -16.449219 L 0.261719 -16.449219 L 5.394531 0 Z M 10.039062 0 "/></g></g></g><g fill="#ffffff" fill-opacity="1"><g transform="translate(176.75382, 153.981219)"><g><path d="M 8.558594 0 L 8.558594 -3.945312 L 7.339844 -3.945312 C 6.960938 -3.945312 6.382812 -4.0625 6.382812 -4.960938 L 6.382812 -22.132812 L 1.507812 -22.132812 L 1.507812 -3.277344 C 1.507812 -1.1875 2.871094 0 5.28125 0 Z M 8.558594 0 "/></g></g></g><g fill="#7b6df2" fill-opacity="1"><g transform="translate(111.842925, 173.235469)"><g><path d="M 2.242188 0.09375 C 3.332031 0.09375 3.96875 -0.511719 4.078125 -1.40625 L 3.011719 -1.40625 C 2.945312 -0.972656 2.632812 -0.777344 2.21875 -0.777344 C 1.5625 -0.777344 1.199219 -1.285156 1.199219 -2.074219 C 1.199219 -2.855469 1.5625 -3.359375 2.21875 -3.359375 C 2.632812 -3.359375 2.953125 -3.164062 3.011719 -2.742188 L 4.078125 -2.742188 C 3.96875 -3.632812 3.332031 -4.226562 2.242188 -4.226562 C 0.824219 -4.226562 0.171875 -3.230469 0.171875 -2.074219 C 0.171875 -0.917969 0.824219 0.09375 2.242188 0.09375 Z M 2.242188 0.09375 "/></g></g></g><g fill="#7b6df2" fill-opacity="1"><g transform="translate(116.472804, 173.235469)"><g><path d="M 2.242188 0.09375 C 3.648438 0.09375 4.304688 -0.917969 4.304688 -2.074219 C 4.304688 -3.230469 3.648438 -4.226562 2.242188 -4.226562 C 0.824219 -4.226562 0.171875 -3.230469 0.171875 -2.074219 C 0.171875 -0.917969 0.824219 0.09375 2.242188 0.09375 Z M 2.242188 -0.777344 C 1.589844 -0.777344 1.199219 -1.285156 1.199219 -2.074219 C 1.199219 -2.855469 1.589844 -3.359375 2.242188 -3.359375 C 2.894531 -3.359375 3.277344 -2.855469 3.277344 -2.074219 C 3.277344 -1.285156 2.894531 -0.777344 2.242188 -0.777344 Z M 2.242188 -0.777344 "/></g></g></g><g fill="#7b6df2" fill-opacity="1"><g transform="translate(121.357784, 173.235469)"><g><path d="M 1.296875 0 L 1.296875 -3.34375 L 2.101562 0 L 3.046875 0 L 3.847656 -3.363281 L 3.847656 0 L 4.820312 0 L 4.820312 -4.140625 L 3.25 -4.140625 L 2.574219 -1.160156 L 1.890625 -4.140625 L 0.324219 -4.140625 L 0.324219 0 Z M 1.296875 0 "/></g></g></g><g fill="#7b6df2" fill-opacity="1"><g transform="translate(126.91038, 173.235469)"><g><path d="M 1.296875 0 L 1.296875 -3.34375 L 2.101562 0 L 3.046875 0 L 3.847656 -3.363281 L 3.847656 0 L 4.820312 0 L 4.820312 -4.140625 L 3.25 -4.140625 L 2.574219 -1.160156 L 1.890625 -4.140625 L 0.324219 -4.140625 L 0.324219 0 Z M 1.296875 0 "/></g></g></g><g fill="#7b6df2" fill-opacity="1"><g transform="translate(132.462976, 173.235469)"><g><path d="M 3.152344 0 L 3.152344 -0.867188 L 1.296875 -0.867188 L 1.296875 -1.640625 L 2.972656 -1.640625 L 2.972656 -2.503906 L 1.296875 -2.503906 L 1.296875 -3.273438 L 3.152344 -3.273438 L 3.152344 -4.140625 L 0.324219 -4.140625 L 0.324219 0 Z M 3.152344 0 "/></g></g></g><g fill="#7b6df2" fill-opacity="1"><g transform="translate(136.251551, 173.235469)"><g><path d="M 1.296875 0 L 1.296875 -2.53125 L 2.886719 0 L 3.875 0 L 3.875 -4.140625 L 2.902344 -4.140625 L 2.902344 -1.628906 L 1.3125 -4.140625 L 0.324219 -4.140625 L 0.324219 0 Z M 1.296875 0 "/></g></g></g><g fill="#7b6df2" fill-opacity="1"><g transform="translate(140.854293, 173.235469)"><g><path d="M 2.183594 0 L 2.183594 -3.273438 L 3.347656 -3.273438 L 3.347656 -4.140625 L 0.0429688 -4.140625 L 0.0429688 -3.273438 L 1.210938 -3.273438 L 1.210938 0 Z M 2.183594 0 "/></g></g></g><g fill="#7b6df2" fill-opacity="1"><g transform="translate(144.648293, 173.235469)"><g/></g></g><g fill="#7b6df2" fill-opacity="1"><g transform="translate(146.461164, 173.235469)"><g><path d="M 3.152344 0 L 3.152344 -0.867188 L 1.296875 -0.867188 L 1.296875 -1.640625 L 2.972656 -1.640625 L 2.972656 -2.503906 L 1.296875 -2.503906 L 1.296875 -3.273438 L 3.152344 -3.273438 L 3.152344 -4.140625 L 0.324219 -4.140625 L 0.324219 0 Z M 3.152344 0 "/></g></g></g><g fill="#7b6df2" fill-opacity="1"><g transform="translate(150.249739, 173.235469)"><g><path d="M 2.449219 0 L 3.863281 -4.140625 L 2.832031 -4.140625 L 1.921875 -1.089844 L 1.007812 -4.140625 L -0.0234375 -4.140625 L 1.394531 0 Z M 2.449219 0 "/></g></g></g><g fill="#7b6df2" fill-opacity="1"><g transform="translate(154.494248, 173.235469)"><g><path d="M 3.152344 0 L 3.152344 -0.867188 L 1.296875 -0.867188 L 1.296875 -1.640625 L 2.972656 -1.640625 L 2.972656 -2.503906 L 1.296875 -2.503906 L 1.296875 -3.273438 L 3.152344 -3.273438 L 3.152344 -4.140625 L 0.324219 -4.140625 L 0.324219 0 Z M 3.152344 0 "/></g></g></g><g fill="#7b6df2" fill-opacity="1"><g transform="translate(158.282823, 173.235469)"><g><path d="M 2.996094 -1.773438 C 3.359375 -1.980469 3.585938 -2.367188 3.585938 -2.894531 C 3.585938 -3.792969 3.039062 -4.140625 2.28125 -4.140625 L 0.324219 -4.140625 L 0.324219 0 L 1.296875 0 L 1.296875 -1.597656 L 2.085938 -1.597656 L 2.6875 0 L 3.710938 0 Z M 2.144531 -3.273438 C 2.457031 -3.273438 2.628906 -3.132812 2.628906 -2.859375 C 2.628906 -2.578125 2.457031 -2.4375 2.144531 -2.4375 L 1.296875 -2.4375 L 1.296875 -3.273438 Z M 2.144531 -3.273438 "/></g></g></g><g fill="#7b6df2" fill-opacity="1"><g transform="translate(162.527331, 173.235469)"><g><path d="M 2.183594 0 L 2.183594 -3.273438 L 3.347656 -3.273438 L 3.347656 -4.140625 L 0.0429688 -4.140625 L 0.0429688 -3.273438 L 1.210938 -3.273438 L 1.210938 0 Z M 2.183594 0 "/></g></g></g><g fill="#7b6df2" fill-opacity="1"><g transform="translate(166.321331, 173.235469)"><g><path d="M 1.296875 0 L 1.296875 -1.632812 L 2.871094 -1.632812 L 2.871094 0 L 3.84375 0 L 3.84375 -4.140625 L 2.871094 -4.140625 L 2.871094 -2.503906 L 1.296875 -2.503906 L 1.296875 -4.140625 L 0.324219 -4.140625 L 0.324219 0 Z M 1.296875 0 "/></g></g></g><g fill="#7b6df2" fill-opacity="1"><g transform="translate(170.90236, 173.235469)"><g><path d="M 1.296875 0 L 1.296875 -4.140625 L 0.324219 -4.140625 L 0.324219 0 Z M 1.296875 0 "/></g></g></g><g fill="#7b6df2" fill-opacity="1"><g transform="translate(172.932338, 173.235469)"><g><path d="M 1.296875 0 L 1.296875 -2.53125 L 2.886719 0 L 3.875 0 L 3.875 -4.140625 L 2.902344 -4.140625 L 2.902344 -1.628906 L 1.3125 -4.140625 L 0.324219 -4.140625 L 0.324219 0 Z M 1.296875 0 "/></g></g></g><g fill="#7b6df2" fill-opacity="1"><g transform="translate(177.53508, 173.235469)"><g><path d="M 2.234375 0.09375 C 2.617188 0.09375 3.050781 0.0117188 3.339844 -0.386719 L 3.339844 0 L 4.222656 0 L 4.222656 -2.3125 L 2.386719 -2.3125 L 2.386719 -1.53125 L 3.25 -1.53125 C 3.222656 -1 2.894531 -0.777344 2.34375 -0.777344 C 1.585938 -0.777344 1.195312 -1.285156 1.195312 -2.074219 C 1.195312 -2.855469 1.585938 -3.359375 2.234375 -3.359375 C 2.746094 -3.359375 3.046875 -3.152344 3.144531 -2.742188 L 4.207031 -2.742188 C 4.070312 -3.636719 3.410156 -4.226562 2.234375 -4.226562 C 0.820312 -4.226562 0.167969 -3.230469 0.167969 -2.074219 C 0.167969 -0.917969 0.820312 0.09375 2.234375 0.09375 Z M 2.234375 0.09375 "/></g></g></g><g fill="#7b6df2" fill-opacity="1"><g transform="translate(182.425492, 173.235469)"><g><path d="M 2.066406 0.09375 C 3.070312 0.09375 3.683594 -0.417969 3.683594 -1.230469 C 3.683594 -2.191406 2.816406 -2.386719 2.117188 -2.546875 C 1.644531 -2.652344 1.242188 -2.746094 1.242188 -3.046875 C 1.242188 -3.304688 1.515625 -3.414062 1.792969 -3.414062 C 2.199219 -3.414062 2.480469 -3.203125 2.578125 -2.847656 L 3.582031 -2.847656 C 3.453125 -3.773438 2.679688 -4.226562 1.8125 -4.226562 C 0.964844 -4.226562 0.277344 -3.820312 0.277344 -2.964844 C 0.277344 -2.050781 1.105469 -1.867188 1.800781 -1.710938 C 2.289062 -1.601562 2.707031 -1.507812 2.707031 -1.183594 C 2.707031 -0.859375 2.394531 -0.722656 2.0625 -0.722656 C 1.6875 -0.722656 1.3125 -0.863281 1.171875 -1.40625 L 0.167969 -1.40625 C 0.246094 -0.246094 1.285156 0.09375 2.066406 0.09375 Z M 2.066406 0.09375 "/></g></g></g></svg>